<?xml version="1.0" encoding="UTF-8"?>
<svg id="Layer_2" data-name="Layer 2" xmlns="http://www.w3.org/2000/svg" viewBox="0 0 1228.08 883.53">
  <defs>
    <style>
      .cls-1 {
        fill: #fff;
      }

      .cls-1, .cls-2, .cls-3 {
        fill-rule: evenodd;
      }

      .cls-4, .cls-2 {
        fill: #d5d426;
      }

      .cls-3 {
        fill: #231f20;
      }
    </style>
  </defs>
  <g id="Layer_1-2" data-name="Layer 1">
    <g>
      <polygon class="cls-3" points="342.76 883.53 0 883.53 0 0 1228.08 0 1228.08 246.03 882.24 445.35 342.76 134.43 342.76 883.53"/>
      <polygon class="cls-2" points="1228.08 883.53 543.33 883.53 543.33 478.34 882.24 673.66 1228.08 474.35 1228.08 883.53"/>
      <polygon class="cls-1" points="342.76 883.53 342.76 134.43 882.24 445.35 1228.08 246.03 1228.08 474.35 882.24 673.66 543.33 478.34 543.33 883.53 342.76 883.53"/>
      <path class="cls-4" d="M136.95,82.81l8.22.39c-3.28-1.88-5.74-4.17-7.4-6.88-1.64-2.71-2.46-5.83-2.46-9.4,0-4.44,1.09-8.06,3.28-10.88,2.16-2.82,4.92-4.63,8.24-5.44,3.3-.81,8.84-1.22,16.58-1.22h62.08v25.83h-61.33c-6.08,0-9.82.2-11.14.59-1.34.37-2,1.44-2,3.21,0,1.86.77,3.02,2.3,3.5,1.55.46,5.65.7,12.32.7h59.85v25.83h-88.54v-26.22ZM136.95,118.35h88.54v26.62h-88.54v-26.62ZM117.41,118.35h14.07v26.62h-14.07v-26.62ZM168.38,179.2h-6.47c-4.6,0-7.54.24-8.88.72-1.34.48-2,1.46-2,2.95,0,1.84.57,2.97,1.71,3.41,1.14.44,4.19.66,9.18.66h6.47v-7.74ZM182.73,153.37v33.57h19.2c4.01,0,6.6-.28,7.77-.83,1.16-.57,1.73-1.64,1.73-3.23,0-1.99-.77-3.32-2.3-3.98-1.55-.68-4.53-1-8.95-1h-11.71v-24.52h6.56c5.49,0,9.7.33,12.64.98,2.94.68,6.08,2.23,9.43,4.65,3.35,2.43,5.85,5.53,7.54,9.27,1.66,3.74,2.5,8.41,2.5,14.05s-.82,10.29-2.48,14.49c-1.64,4.17-3.89,7.43-6.76,9.77-2.87,2.34-6.03,3.93-9.5,4.83-3.44.9-8.45,1.35-15.05,1.35h-25.85c-7.74,0-13.85-1-18.33-3.02-4.46-2.01-7.9-5.29-10.27-9.86-2.39-4.59-3.58-9.83-3.58-15.78,0-7.26,1.43-13.24,4.3-17.96,2.87-4.72,6.67-8.04,11.41-9.94,4.71-1.9,11.39-2.84,19.97-2.84h11.73ZM125.2,224.79h13.94v-7.21h14.07v7.21h47.34c5.81,0,9.06-.31,9.72-.9.66-.59,1-3.04,1-7.36h14.21v10.47c0,5.9-.25,10.12-.77,12.65-.5,2.51-1.68,4.74-3.53,6.66-1.84,1.92-3.94,3.13-6.33,3.61-2.37.46-7.95.7-16.74.7h-44.91v5.51h-14.07v-5.51h-13.94v-25.83ZM150.21,261.91v25.04h-7.99c-3.73,0-6.13.33-7.15.96-1.02.63-1.53,1.68-1.53,3.17,0,1.62.68,2.84,2.07,3.67,1.37.83,3.44,1.25,6.24,1.25,3.6,0,6.31-.48,8.13-1.42,1.8-.92,4.01-3.45,6.6-7.63,7.45-11.95,13.57-19.49,18.33-22.6,4.76-3.12,12.43-4.68,23-4.68,7.7,0,13.37.87,17.03,2.6,3.64,1.73,6.7,5.05,9.15,10.01,2.48,4.94,3.71,10.69,3.71,17.26,0,7.21-1.43,13.35-4.28,18.46-2.85,5.09-6.47,8.41-10.86,10.01-4.42,1.57-10.68,2.36-18.76,2.36h-7.08v-25.04h13.14c4.05,0,6.65-.35,7.81-1.05,1.16-.7,1.73-1.95,1.73-3.74s-.73-3.12-2.21-4c-1.46-.87-3.64-1.31-6.51-1.31-6.35,0-10.52.83-12.46,2.49-1.96,1.73-5.24,5.92-9.84,12.61-4.62,6.69-7.99,11.1-10.09,13.29-2.09,2.16-4.99,3.98-8.68,5.4-3.69,1.42-8.4,2.14-14.14,2.14-8.27,0-14.32-1.01-18.15-3.04-3.83-2.03-6.81-5.29-8.97-9.81-2.16-4.52-3.23-9.96-3.23-16.37,0-6.99,1.18-12.94,3.53-17.88,2.37-4.92,5.33-8.17,8.93-9.77,3.58-1.6,9.66-2.4,18.24-2.4h4.28ZM207.32,383.24l-14.57,8.39c3.03,3.17,6.31,4.74,9.82,4.74,2.55,0,4.46-.5,5.72-1.51,1.27-.98,1.91-2.47,1.91-4.41,0-2.08-.96-4.48-2.87-7.21ZM165.46,389.2c-3.96-2.99-7.77-4.5-11.36-4.5-1.57,0-2.98.44-4.28,1.29-1.3.85-1.94,2.05-1.94,3.58,0,1.42.5,2.49,1.48,3.21.98.72,2.46,1.09,4.46,1.09,4.19,0,8.06-1.55,11.64-4.68ZM184.46,349.17h18.24l4.85,7.28,17.94-9.05v23.99l-5.9,3.19c5.49,7.98,8.22,15.56,8.22,22.7s-2.6,13.24-7.81,17.29c-5.22,4.04-11.5,6.05-18.86,6.05-5.88,0-10.48-1.18-13.82-3.56-3.35-2.38-6.06-5.97-8.15-10.75-5.12,6.84-12.02,10.25-20.75,10.25-7.51,0-13.57-2.43-18.15-7.3-4.58-4.87-6.88-11.56-6.88-20.1,0-7.69,2.25-13.74,6.74-18.16,4.49-4.41,10.2-6.62,17.15-6.62,7.29,0,13.76,2.69,19.4,8.06l17.28-9.03-9.52-14.25ZM136.95,483.87l8.22.39c-3.28-1.88-5.74-4.17-7.4-6.88-1.64-2.71-2.46-5.83-2.46-9.4,0-4.44,1.09-8.06,3.28-10.88,2.16-2.82,4.92-4.63,8.24-5.44,3.3-.81,8.84-1.22,16.58-1.22h62.08v25.83h-61.33c-6.08,0-9.82.2-11.14.59-1.34.37-2,1.44-2,3.21,0,1.86.77,3.02,2.3,3.5,1.55.46,5.65.7,12.32.7h59.85v25.83h-88.54v-26.22ZM168.38,544.33h-6.47c-4.6,0-7.54.24-8.88.72-1.34.48-2,1.46-2,2.95,0,1.84.57,2.97,1.71,3.41,1.14.44,4.19.66,9.18.66h6.47v-7.74ZM182.73,518.5v33.57h19.2c4.01,0,6.6-.28,7.77-.83,1.16-.57,1.73-1.64,1.73-3.23,0-1.99-.77-3.32-2.3-3.98-1.55-.68-4.53-1-8.95-1h-11.71v-24.52h6.56c5.49,0,9.7.33,12.64.98,2.94.68,6.08,2.23,9.43,4.65,3.35,2.43,5.85,5.53,7.54,9.27,1.66,3.74,2.5,8.41,2.5,14.05s-.82,10.29-2.48,14.49c-1.64,4.17-3.89,7.43-6.76,9.77-2.87,2.34-6.03,3.93-9.5,4.83-3.44.9-8.45,1.35-15.05,1.35h-25.85c-7.74,0-13.85-1-18.33-3.02-4.46-2.01-7.9-5.29-10.27-9.86-2.39-4.59-3.58-9.83-3.58-15.78,0-7.26,1.43-13.24,4.3-17.96,2.87-4.72,6.67-8.04,11.41-9.94,4.71-1.9,11.39-2.84,19.97-2.84h11.73ZM165.24,585.98v22.81h-4.8c-4.1,0-6.67.22-7.77.68-1.09.44-1.64,1.57-1.64,3.37,0,1.44.5,2.53,1.5,3.26,1,.72,2.51,1.09,4.51,1.09,2.71,0,4.71-.17,5.97-.55,1.28-.35,2.66-1.44,4.17-3.26,1.53-1.79,3.73-5.51,6.63-11.12,3.83-7.5,7.42-12.39,10.82-14.73,3.37-2.34,8.29-3.52,14.73-3.52,7.22,0,12.66.9,16.33,2.69,3.67,1.79,6.51,4.79,8.49,8.98,1.98,4.22,2.96,9.27,2.96,15.21,0,6.55-1.07,12.19-3.19,16.85-2.14,4.68-5.03,7.89-8.68,9.64-3.64,1.75-9.15,2.62-16.53,2.62h-4.26v-22.95h5.58c4.74,0,7.81-.28,9.25-.85,1.41-.59,2.12-1.73,2.12-3.41,0-1.84-.48-3.1-1.43-3.82-.96-.72-2.98-1.09-6.03-1.09-4.24,0-6.88.46-7.95,1.4-1.07.98-4.24,5.99-9.5,15.01-4.44,7.58-8.47,12.22-12.12,13.88-3.62,1.66-7.92,2.49-12.91,2.49-7.08,0-12.3-.9-15.64-2.69-3.37-1.79-5.97-4.83-7.79-9.11-1.82-4.28-2.73-9.27-2.73-14.92s.75-10.42,2.23-14.36c1.5-3.96,3.46-6.97,5.92-9.09,2.44-2.1,4.71-3.39,6.81-3.82,2.1-.46,5.37-.68,9.82-.68h5.15ZM168.38,673.06h-6.47c-4.6,0-7.54.24-8.88.72-1.34.48-2,1.46-2,2.95,0,1.84.57,2.97,1.71,3.41,1.14.44,4.19.66,9.18.66h6.47v-7.74ZM182.73,647.23v33.57h19.2c4.01,0,6.6-.28,7.77-.83,1.16-.57,1.73-1.64,1.73-3.23,0-1.99-.77-3.32-2.3-3.98-1.55-.68-4.53-1-8.95-1h-11.71v-24.52h6.56c5.49,0,9.7.33,12.64.98,2.94.68,6.08,2.23,9.43,4.65,3.35,2.43,5.85,5.53,7.54,9.27,1.66,3.74,2.5,8.41,2.5,14.05s-.82,10.29-2.48,14.49c-1.64,4.17-3.89,7.43-6.76,9.77-2.87,2.34-6.03,3.93-9.5,4.83-3.44.9-8.45,1.35-15.05,1.35h-25.85c-7.74,0-13.85-1-18.33-3.02-4.46-2.01-7.9-5.29-10.27-9.86-2.39-4.59-3.58-9.83-3.58-15.78,0-7.26,1.43-13.24,4.3-17.96,2.87-4.72,6.67-8.04,11.41-9.94,4.71-1.9,11.39-2.84,19.97-2.84h11.73ZM136.95,715.15h88.54v26.62h-88.54v-26.62ZM117.41,715.15h14.07v26.62h-14.07v-26.62ZM117.41,751.08h108.08v26.62h-108.08v-26.62ZM117.41,829.09v-45.63h21.59v18.62h20.63v-16.52h20.5v16.52h45.36v27.01h-108.08Z"/>
    </g>
  </g>
</svg>